<?xml version="1.0" encoding="UTF-8"?> <svg xmlns="http://www.w3.org/2000/svg" xmlns:xlink="http://www.w3.org/1999/xlink" version="1.1" id="Livello_1" x="0px" y="0px" viewBox="0 0 321.3 67" style="enable-background:new 0 0 321.3 67;" xml:space="preserve"> <style type="text/css"> .st0{fill:#527F73;} .st1{fill:#E1251B;} .st2{fill:#272724;} .st3{fill:#B9242F;} .st4{fill:#575756;} </style> <g> <path class="st1" d="M320.1,5.1c0,0.7-0.2,1.3-0.5,1.9c-0.3,0.6-0.8,1.1-1.4,1.4c-0.6,0.3-1.2,0.5-1.9,0.5c-0.7,0-1.3-0.2-1.9-0.5 c-0.6-0.3-1.1-0.8-1.4-1.4c-0.3-0.6-0.5-1.2-0.5-1.9c0-0.7,0.2-1.3,0.5-1.9c0.3-0.6,0.8-1.1,1.4-1.4c0.6-0.3,1.2-0.5,1.9-0.5 c0.6,0,1.3,0.2,1.9,0.5c0.6,0.3,1.1,0.8,1.4,1.4C319.9,3.8,320.1,4.4,320.1,5.1 M320.8,5.1c0-0.8-0.2-1.6-0.6-2.3 c-0.4-0.7-1-1.3-1.7-1.7c-0.7-0.4-1.5-0.6-2.2-0.6c-0.8,0-1.5,0.2-2.2,0.6c-0.7,0.4-1.3,1-1.7,1.7c-0.4,0.7-0.6,1.5-0.6,2.3 c0,0.8,0.2,1.5,0.6,2.3c0.4,0.7,1,1.3,1.7,1.7c0.7,0.4,1.5,0.6,2.3,0.6s1.5-0.2,2.3-0.6c0.7-0.4,1.3-1,1.7-1.7 C320.6,6.6,320.8,5.8,320.8,5.1"></path> <path class="st1" d="M317.2,4.1c0,0.2-0.1,0.4-0.2,0.5c-0.2,0.1-0.5,0.2-0.9,0.2h-1V3.3h0.9c0.4,0,0.7,0,0.8,0.1 c0.1,0.1,0.3,0.1,0.3,0.3C317.2,3.8,317.2,3.9,317.2,4.1 M317.7,4.9c0.3-0.3,0.4-0.6,0.4-0.9c0-0.3-0.1-0.5-0.2-0.7 c-0.2-0.2-0.4-0.4-0.6-0.5c-0.3-0.1-0.7-0.1-1.2-0.1h-1.7v4.9h0.8V5.5h0.5c0.3,0,0.5,0.1,0.6,0.2c0.2,0.2,0.5,0.5,0.8,1.1l0.4,0.8 h1l-0.6-1c-0.3-0.5-0.5-0.8-0.7-1c-0.1-0.1-0.2-0.2-0.4-0.3C317.1,5.3,317.4,5.2,317.7,4.9"></path> <path class="st2" d="M296.7,52h9.2v-1.5h-10.9v15.6H306v-1.5h-9.2v-5.5h8.3v-1.5h-8.3V52z M279.7,64.9c-3.6,0-6.5-2.8-6.5-6.6 c0-3.7,2.8-6.6,6.5-6.6c2.9,0,5.1,1.7,5.7,4.3h1.7c-0.8-3.5-3.6-5.8-7.5-5.8c-4.5,0-8.1,3.5-8.1,8.1s3.6,8.1,8.1,8.1 c3.8,0,6.7-2.4,7.5-5.8h-1.7C284.8,63.2,282.6,64.9,279.7,64.9 M261.7,60.1h-6.9l3.4-7.8L261.7,60.1z M262.4,61.6l2,4.6h1.7 L259,50.4h-1.5l-7.1,15.8h1.7l2-4.6H262.4z M237.4,52h9v-1.5h-10.7v15.6h1.6v-6.6h8.1V58h-8.1V52z M217.9,59v-7h4.1 c2.6,0,4.4,1.3,4.4,3.5c0,2.2-1.8,3.5-4.4,3.5H217.9z M221.8,60.5l4.9,5.7h2l-5-5.8c2.6-0.5,4.3-2.3,4.3-4.8c0-3.1-2.4-5-6-5h-5.8 v15.6h1.6v-5.7H221.8z M207.8,50.5h-1.6v9c0,3.1-2,5.5-5,5.5c-3,0-5-2.3-5-5.5v-9h-1.6v9c0,4.1,2.7,7,6.6,7c4,0,6.7-2.9,6.7-7V50.5 z M180.7,50.2c-3.3,0-5.5,1.8-5.5,4.5c0,2.1,1.4,3.6,4.3,4.1l2.7,0.5c2,0.4,2.9,1.4,2.9,2.7c0,1.9-1.6,3.1-4.1,3.1 c-2.9,0-4.6-1.4-5-3.9h-1.6c0.4,3.4,2.8,5.3,6.5,5.3c3.5,0,5.8-1.9,5.8-4.7c0-2.2-1.6-3.5-4.3-4.1l-2.4-0.5 c-2.1-0.4-3.2-1.2-3.2-2.7c0-1.8,1.6-3,3.9-3c2.6,0,4,1.2,4.4,3.2h1.6C186.4,51.7,183.9,50.2,180.7,50.2 M144.9,64.7V52h3.8 c3.8,0,6.6,2.6,6.6,6.2c0,3.8-2.7,6.4-6.6,6.4H144.9z M143.3,50.5v15.6h5.4c4.9,0,8.2-3.3,8.2-7.9c0-4.5-3.4-7.7-8.2-7.7H143.3z M126.2,52h9.2v-1.5h-10.9v15.6h10.9v-1.5h-9.2v-5.5h8.3v-1.5h-8.3V52z M117.6,52v-1.5h-13.3V52h5.8v14.1h1.6V52H117.6z M97.5,50.5 h-1.6v15.6h1.6V50.5z M87.2,50.5h-1.2l-6.3,10.6l-6.3-10.6h-1.3v15.6h1.6l0-12.1l5.4,9h1.1l5.4-9l0,12h1.6V50.5z M63.4,50.5h-1.6 v15.6h1.6V50.5z M54.6,64.7h-8.7V50.5h-1.6v15.6h10.3V64.7z M35.6,50.5h-1.6v12.8L23.7,50.5h-1.4v15.6h1.6V53.5l10.2,12.7h1.4V50.5 z M13.9,50.5h-1.6v9c0,3.1-2,5.5-5,5.5s-5-2.3-5-5.5v-9H0.6v9c0,4.1,2.7,7,6.6,7c4,0,6.7-2.9,6.7-7V50.5z"></path> <path class="st2" d="M266.1,1.3h-8.7V21L240.5,1.3h-6.6v35h8.7V17.1l16.8,19.2h6.7V1.3z M207.9,28.9c-5.7,0-9.7-4.6-9.7-10.1 c0-5.5,4.1-10.1,9.7-10.1c5.7,0,9.7,4.6,9.7,10.1C217.6,24.3,213.6,28.9,207.9,28.9 M207.9,0.6c-10.6,0-18.5,8-18.5,18.2 c0,10.2,8,18.2,18.5,18.2c10.6,0,18.6-8,18.6-18.2C226.5,8.6,218.5,0.6,207.9,0.6 M185.4,9.1V1.3h-31v7.8h11.2v27.3h8.7V9.1H185.4z M134.5,0.5c-8.2,0-13.9,4.4-13.9,11.4c0,5.6,3.2,8.8,10.1,10.3l5.8,1.3c3,0.6,3.7,1.8,3.7,3c0,1.9-1.7,3.1-4.9,3.1 c-4.1,0-6.8-1.9-7.4-4.9h-8.7c0.8,8.7,7.9,12.4,15.8,12.4c8.8,0,14.5-4.4,14.5-11.4c0-6-4.2-8.6-10.6-10l-4.9-1.1 c-2.6-0.6-4-1.4-4-3.3c0-2.3,2-3.5,5-3.5c3.6,0,5.2,1.8,5.7,4.4h8.8C148.7,2.7,140.2,0.5,134.5,0.5 M114.8,28.6H97.5V1.3h-8.7v35 h26V28.6z M68.4,22.9h-9.1l4.5-11.6L68.4,22.9z M71.3,30.3l2.4,6h9.2L68.1,1.1h-8.3L44.9,36.3h9.3l2.3-6H71.3z M46.7,9.1V1.3h-31 v7.8h11.2v27.3h8.7V9.1H46.7z M9.2,1.3H0.5v35h8.7V1.3z"></path> <rect x="275.8" y="1.3" class="st1" width="30.1" height="7.6"></rect> <rect x="275.8" y="28.8" class="st1" width="30.1" height="7.6"></rect> <rect x="275.8" y="15" class="st1" width="30.1" height="7.6"></rect> </g> </svg> 