<?xml version="1.0" encoding="UTF-8"?> <svg xmlns="http://www.w3.org/2000/svg" id="_Слой_2" data-name="Слой 2" viewBox="0 0 374.9 374.91"> <defs> <style> .cls-1 { fill: #686868; } .cls-1, .cls-2 { font-family: Arial-BoldMT, Arial; font-size: 36px; font-weight: 700; } .cls-2 { fill: #000; } </style> </defs> <g id="_Слой_1-2" data-name="Слой 1"> <text class="cls-1" transform="translate(132.25 96.59) rotate(-25.41)"> <tspan x="0" y="0">К</tspan> </text> <text class="cls-1" transform="translate(150.86 87.36) rotate(-13.08)"> <tspan x="0" y="0">А</tspan> </text> <text class="cls-1" transform="translate(175.01 81.84) rotate(-.73)"> <tspan x="0" y="0">К</tspan> </text> <text class="cls-1" transform="translate(195.74 81.1) rotate(12.01)"> <tspan x="0" y="0">О</tspan> </text> <text class="cls-1" transform="translate(221.8 86.61) rotate(25.73)"> <tspan x="0" y="0">Й</tspan> </text> <text class="cls-1" transform="translate(243.97 97.91) rotate(34.93)"> <tspan x="0" y="0"> </tspan> </text> <text class="cls-1" transform="translate(251.73 103.29) rotate(40.08)"> <tspan x="0" y="0"> </tspan> </text> <text class="cls-1" transform="translate(258.98 109.36) rotate(45.24)"> <tspan x="0" y="0"> </tspan> </text> <text class="cls-1" transform="translate(265.79 115.54) rotate(53.45)"> <tspan x="0" y="0">К</tspan> </text> <text class="cls-1" transform="translate(278.44 132.03) rotate(65.59)"> <tspan x="0" y="0">А</tspan> </text> <text class="cls-1" transform="translate(289.01 154.27) rotate(79.98)"> <tspan x="0" y="0">М</tspan> </text> <text class="cls-1" transform="translate(293.79 182.47) rotate(93.84)"> <tspan x="0" y="0">Е</tspan> </text> <text class="cls-1" transform="translate(292.52 205.18) rotate(106.56)"> <tspan x="0" y="0">Н</tspan> </text> <text class="cls-1" transform="translate(285.62 228.9) rotate(119.8)"> <tspan x="0" y="0">Ь</tspan> </text> <text class="cls-1" transform="translate(272.78 250.19) rotate(129.02)"> <tspan x="0" y="0"> </tspan> </text> <text class="cls-1" transform="translate(266.84 257.55) rotate(134.18)"> <tspan x="0" y="0"> </tspan> </text> <text class="cls-1" transform="translate(260.28 264.34) rotate(139.32)"> <tspan x="0" y="0"> </tspan> </text> <text class="cls-1" transform="translate(253.78 270.75) rotate(148.11)"> <tspan x="0" y="0">В</tspan> </text> <text class="cls-1" transform="translate(233.28 284.41) rotate(164.12)"> <tspan x="0" y="0">Ы</tspan> </text> <text class="cls-1" transform="translate(200.33 292.58) rotate(175.76)"> <tspan x="0" y="0"> </tspan> </text> <text class="cls-1" transform="translate(190.91 293.31) rotate(-179.11)"> <tspan x="0" y="0"> </tspan> </text> <text class="cls-1" transform="translate(181.45 293.18) rotate(-174.01)"> <tspan x="0" y="0"> </tspan> </text> <text class="cls-1" transform="translate(172.33 292.94) rotate(-164.85)"> <tspan x="0" y="0">В</tspan> </text> <text class="cls-1" transform="translate(148.35 287.31) rotate(-149.21)"> <tspan x="0" y="0">Ы</tspan> </text> <text class="cls-1" transform="translate(119.67 269.72) rotate(-133.49)"> <tspan x="0" y="0">Б</tspan> </text> <text class="cls-1" transform="translate(102.62 252.06) rotate(-120.03)"> <tspan x="0" y="0">И</tspan> </text> <text class="cls-1" transform="translate(90.2 230.77) rotate(-107.58)"> <tspan x="0" y="0">Р</tspan> </text> <text class="cls-1" transform="translate(83.74 212.1) rotate(-96.32)"> <tspan x="0" y="0">А</tspan> </text> <text class="cls-1" transform="translate(80.99 187.54) rotate(-83.52)"> <tspan x="0" y="0">Е</tspan> </text> <text class="cls-1" transform="translate(83.55 164.86) rotate(-71.81)"> <tspan x="0" y="0">Т</tspan> </text> <text class="cls-1" transform="translate(89.83 145) rotate(-60.07)"> <tspan x="0" y="0">Е</tspan> </text> <text class="cls-1" transform="translate(101.19 125.23) rotate(-48.23)"> <tspan x="0" y="0">?</tspan> </text> <text class="cls-1" transform="translate(115.51 109.74) rotate(-40.01)"> <tspan x="0" y="0"> </tspan> </text> <text class="cls-2" transform="translate(122.76 103.63) rotate(-34.89)"> <tspan x="0" y="0"> </tspan> </text> </g> </svg> 