<?xml version="1.0" encoding="UTF-8"?> <svg xmlns="http://www.w3.org/2000/svg" xmlns:xlink="http://www.w3.org/1999/xlink" version="1.1" id="Слой_1" x="0px" y="0px" width="159px" height="26px" viewBox="0 0 159 26" style="enable-background:new 0 0 159 26;" xml:space="preserve"> <style type="text/css"> .st0{fill:#003A5B;} </style> <polygon class="st0" points="28.3,0.9 19.5,17.5 23.7,17.5 25.5,14.1 31.7,14.1 33.4,10.6 27.2,10.6 29.9,5.5 30.5,4 31.2,5.5 37.1,17.5 41.5,17.5 33.1,0.9 "></polygon> <polygon class="st0" points="56.6,13.6 50.9,0.9 45.7,0.9 45.7,17.5 49.5,17.5 49.5,6.4 54.6,17.5 58.5,17.5 63.7,6.4 63.7,17.5 67.6,17.5 67.6,0.9 62.5,0.9 "></polygon> <polygon class="st0" points="98.3,12.1 88.7,0.9 84.3,0.9 84.3,17.5 88.2,17.5 88.2,6.1 98,17.5 102.2,17.5 102.2,0.9 98.3,0.9 "></polygon> <polygon class="st0" points="149.3,0.9 143.5,13.6 137.8,0.9 132.6,0.9 132.6,17.5 136.4,17.5 136.4,6.4 141.5,17.5 145.4,17.5 150.6,6.4 150.6,17.5 154.4,17.5 154.4,0.9 "></polygon> <polygon class="st0" points="114.9,0.9 106.1,17.5 110.3,17.5 112.1,14.1 118.3,14.1 120.1,10.6 113.9,10.6 116.5,5.5 117.2,4 117.8,5.5 123.8,17.5 128.1,17.5 119.7,0.9 "></polygon> <rect x="73.9" y="0.9" class="st0" width="4.1" height="16.7"></rect> <polygon class="st0" points="5.7,0.8 1.7,0.8 1.7,17.6 16.7,17.6 16.7,14.2 5.7,14.2 "></polygon> <g> <path class="st0" d="M4,25.2c-1.7,0-2.3-0.6-2.3-1.3h1c0,0.3,0.4,0.6,1.3,0.6c0.9,0,1.1-0.2,1.1-0.4c0-0.3-0.2-0.4-1-0.5 c-0.2,0-0.6-0.1-0.8-0.1c-1.2-0.1-1.6-0.5-1.6-1.1c0-0.7,0.7-1.1,2.1-1.1c1.5,0,2.1,0.6,2.1,1.2H5C5,22.2,4.6,22,3.8,22 c-0.9,0-1.1,0.1-1.1,0.4c0,0.2,0.2,0.3,1.1,0.4c0.2,0,0.7,0.1,0.8,0.1c1,0.1,1.4,0.5,1.4,1.1C6.1,24.8,5.4,25.2,4,25.2"></path> <path class="st0" d="M10.6,25.2c-1.3,0-2.1-0.5-2.1-1.6v-2.3h0.9v2.3c0,0.5,0.4,0.8,1.2,0.8c0.7,0,1.2-0.3,1.2-0.8v-2.3h0.9v2.4 C12.8,24.7,12,25.2,10.6,25.2"></path> <path class="st0" d="M19.3,23.6c-0.2,0.3-0.6,0.5-1.2,0.5c-0.1,0-1.7,0-1.7,0v1.1h-0.9v-3.8h2.7c0.6,0,1,0.1,1.2,0.4 c0.2,0.2,0.3,0.5,0.3,1C19.6,23.1,19.5,23.4,19.3,23.6 M18.6,22.3c-0.1-0.1-0.3-0.2-0.7-0.2h-1.6v1.2h1.5c0.4,0,0.6-0.1,0.7-0.2 c0.1-0.1,0.1-0.2,0.1-0.3C18.6,22.5,18.6,22.4,18.6,22.3"></path> <polygon class="st0" points="22,25.2 22,21.4 25.7,21.4 25.7,22.1 22.9,22.1 22.9,22.9 25.7,22.9 25.7,23.6 22.9,23.6 22.9,24.4 25.8,24.4 25.8,25.2 "></polygon> <path class="st0" d="M32.2,23.1c-0.1,0.2-0.3,0.4-0.6,0.4l1.1,1.6h-1l-1-1.5h-1.5v1.5h-0.9v-3.8H31c0.6,0,1,0.2,1.2,0.4 c0.1,0.2,0.2,0.4,0.2,0.7C32.4,22.7,32.3,23,32.2,23.1 M31.4,22.3c-0.1-0.1-0.2-0.2-0.5-0.2h-1.7v0.8H31c0.2,0,0.4-0.1,0.4-0.2 c0-0.1,0.1-0.2,0.1-0.3C31.5,22.4,31.5,22.3,31.4,22.3"></path> <rect x="35.1" y="21.4" class="st0" width="0.9" height="3.8"></rect> <path class="st0" d="M42.8,21.9c0.3,0.3,0.4,0.7,0.4,1.3c0,0.6-0.2,1-0.4,1.3c-0.4,0.4-1,0.7-2,0.7c-0.9,0-1.5-0.2-1.9-0.7 c-0.3-0.3-0.5-0.8-0.5-1.3c0-0.5,0.1-0.9,0.4-1.3c0.4-0.5,1-0.7,2-0.7C41.8,21.3,42.4,21.5,42.8,21.9 M42.1,24.1 c0.2-0.2,0.3-0.5,0.3-0.8c0-0.3-0.1-0.7-0.3-0.8c-0.3-0.2-0.6-0.4-1.2-0.4c-0.6,0-1,0.2-1.2,0.4c-0.2,0.2-0.3,0.5-0.3,0.8 c0,0.4,0.1,0.7,0.3,0.9c0.3,0.2,0.6,0.3,1.1,0.3C41.5,24.5,41.8,24.3,42.1,24.1"></path> <path class="st0" d="M49.6,23.1c-0.1,0.2-0.3,0.4-0.6,0.4l1.1,1.6h-1l-1-1.5h-1.5v1.5h-0.9v-3.8h2.7c0.6,0,1,0.2,1.2,0.4 c0.1,0.2,0.2,0.4,0.2,0.7C49.8,22.7,49.7,23,49.6,23.1 M48.8,22.3c-0.1-0.1-0.2-0.2-0.5-0.2h-1.7v0.8h1.8c0.2,0,0.4-0.1,0.4-0.2 c0-0.1,0.1-0.2,0.1-0.3C48.9,22.4,48.9,22.3,48.8,22.3"></path> <polygon class="st0" points="59.2,25.2 57,22.5 57,25.2 56.1,25.2 56.1,21.4 57.1,21.4 59.3,23.9 59.3,21.4 60.2,21.4 60.2,25.2 "></polygon> <path class="st0" d="M63.3,25.2h-1l2-3.8h1.1l1.9,3.8h-1L66,24.3h-2.3L63.3,25.2z M65.1,22.4l-0.2-0.3l-0.2,0.3l-0.6,1.2h1.5 C65.6,23.6,65.1,22.4,65.1,22.4"></path> <polygon class="st0" points="71.3,22.1 71.3,25.2 70.4,25.2 70.4,22.1 68.7,22.1 68.7,21.4 73,21.4 73,22.1 "></polygon> <path class="st0" d="M77.3,25.2c-1.3,0-2.1-0.5-2.1-1.6v-2.3h0.9v2.3c0,0.5,0.4,0.8,1.2,0.8c0.7,0,1.2-0.3,1.2-0.8v-2.3h0.9v2.4 C79.4,24.7,78.6,25.2,77.3,25.2"></path> <path class="st0" d="M86,23.1c-0.1,0.2-0.3,0.4-0.6,0.4l1.1,1.6h-1l-1-1.5H83v1.5h-0.9v-3.8h2.7c0.6,0,1,0.2,1.2,0.4 c0.1,0.2,0.2,0.4,0.2,0.7C86.2,22.7,86.1,23,86,23.1 M85.2,22.3c-0.1-0.1-0.2-0.2-0.5-0.2H83v0.8h1.8c0.2,0,0.4-0.1,0.4-0.2 c0-0.1,0.1-0.2,0.1-0.3C85.3,22.4,85.3,22.3,85.2,22.3"></path> <path class="st0" d="M89.4,25.2h-1l2-3.8h1.1l1.9,3.8h-1l-0.4-0.8h-2.3L89.4,25.2z M91.1,22.4L91,22.1l-0.2,0.3l-0.6,1.2h1.5 C91.7,23.6,91.1,22.4,91.1,22.4"></path> <polygon class="st0" points="95.7,25.2 95.7,21.4 96.6,21.4 96.6,24.4 99.1,24.4 99.1,25.2 "></polygon> <path class="st0" d="M107.1,25.2c-1.7,0-2.3-0.6-2.3-1.3h1c0,0.3,0.4,0.6,1.3,0.6c0.9,0,1.1-0.2,1.1-0.4c0-0.3-0.2-0.4-1-0.5 c-0.2,0-0.6-0.1-0.8-0.1c-1.2-0.1-1.6-0.5-1.6-1.1c0-0.7,0.7-1.1,2.1-1.1c1.5,0,2.1,0.6,2.1,1.2h-1c0-0.3-0.4-0.5-1.2-0.5 c-0.9,0-1.1,0.1-1.1,0.4c0,0.2,0.2,0.3,1.1,0.4c0.2,0,0.7,0.1,0.8,0.1c1,0.1,1.4,0.5,1.4,1.1C109.2,24.8,108.5,25.2,107.1,25.2"></path> <path class="st0" d="M113.7,25.2c-1.3,0-2.1-0.5-2.1-1.6v-2.3h0.9v2.3c0,0.5,0.4,0.8,1.2,0.8c0.7,0,1.2-0.3,1.2-0.8v-2.3h0.9v2.4 C115.9,24.7,115.1,25.2,113.7,25.2"></path> <path class="st0" d="M122.5,23.1c-0.1,0.2-0.3,0.4-0.6,0.4l1.1,1.6h-1l-1-1.5h-1.5v1.5h-0.9v-3.8h2.7c0.6,0,1,0.2,1.2,0.4 c0.1,0.2,0.2,0.4,0.2,0.7C122.6,22.7,122.6,23,122.5,23.1 M121.7,22.3c-0.1-0.1-0.2-0.2-0.5-0.2h-1.7v0.8h1.8 c0.2,0,0.4-0.1,0.4-0.2c0-0.1,0.1-0.2,0.1-0.3C121.7,22.4,121.7,22.3,121.7,22.3"></path> <polygon class="st0" points="126.3,22.1 126.3,22.9 128.8,22.9 128.8,23.7 126.3,23.7 126.3,25.2 125.4,25.2 125.4,21.4 129,21.4 129,22.1 "></polygon> <path class="st0" d="M131.5,25.2h-1l2-3.8h1.1l1.9,3.8h-1l-0.4-0.8H132L131.5,25.2z M133.3,22.4l-0.2-0.3l-0.2,0.3l-0.6,1.2h1.5 C133.8,23.6,133.3,22.4,133.3,22.4"></path> <path class="st0" d="M141.9,24.4c-0.3,0.5-1,0.9-2.1,0.9c-1,0-1.7-0.3-2-0.7c-0.2-0.3-0.4-0.7-0.4-1.2c0-0.5,0.1-0.9,0.3-1.2 c0.4-0.5,1-0.8,2-0.8c1.2,0,1.8,0.4,2.1,1c0.1,0.2,0.2,0.5,0.2,0.6h-1c0-0.1-0.1-0.3-0.2-0.4c-0.2-0.2-0.6-0.4-1.2-0.4 c-0.6,0-1,0.2-1.2,0.5c-0.1,0.2-0.2,0.4-0.2,0.7c0,0.3,0.1,0.6,0.2,0.7c0.2,0.3,0.7,0.5,1.2,0.5c0.6,0,0.9-0.1,1.2-0.4 c0.1-0.1,0.1-0.2,0.2-0.4h1C142.1,23.9,142.1,24.1,141.9,24.4"></path> <polygon class="st0" points="144.6,25.2 144.6,21.4 148.3,21.4 148.3,22.1 145.5,22.1 145.5,22.9 148.2,22.9 148.2,23.6 145.5,23.6 145.5,24.4 148.3,24.4 148.3,25.2 "></polygon> <path class="st0" d="M152.9,25.2c-1.7,0-2.3-0.6-2.3-1.3h1c0,0.3,0.4,0.6,1.3,0.6c0.9,0,1.1-0.2,1.1-0.4c0-0.3-0.2-0.4-1-0.5 c-0.2,0-0.6-0.1-0.8-0.1c-1.2-0.1-1.6-0.5-1.6-1.1c0-0.7,0.7-1.1,2.1-1.1c1.5,0,2.1,0.6,2.1,1.2h-1c0-0.3-0.4-0.5-1.2-0.5 c-0.9,0-1.1,0.1-1.1,0.4c0,0.2,0.2,0.3,1.1,0.4c0.2,0,0.7,0.1,0.8,0.1c1,0.1,1.4,0.5,1.4,1.1C155,24.8,154.3,25.2,152.9,25.2"></path> </g> </svg> 